<svg width="170" height="170" viewBox="0 0 170 170" fill="none" xmlns="http://www.w3.org/2000/svg">
<path fill-rule="evenodd" clip-rule="evenodd" d="M84.9968 0L121.259 21.5335L157.514 43.0669V69.1763H12.4994V43.0669L48.7416 21.5335L84.9968 0ZM157.514 118.259V126.933L121.259 148.467L84.9968 170L48.7416 148.467L12.4994 126.933V118.259H157.514Z" fill="#257261"/>
<path fill-rule="evenodd" clip-rule="evenodd" d="M142.555 117.781V118.286L113.776 135.385L84.9967 152.477L56.2175 135.385L27.4384 118.286V117.781H142.555Z" fill="#EBC04F"/>
<path fill-rule="evenodd" clip-rule="evenodd" d="M84.9967 17.5296L113.776 34.6218L142.555 51.7207V69.4118H27.4384V51.7207L56.2175 34.6218L84.9967 17.5296Z" fill="#EBC04F"/>
<path fill-rule="evenodd" clip-rule="evenodd" d="M0 70.5423L85.9321 72.1237L170 70.5423V68.9609H0V70.5423Z" fill="#257261"/>
<path fill-rule="evenodd" clip-rule="evenodd" d="M0 116.678L85.9321 115.096L170 116.678V118.259H0V116.678Z" fill="#257261"/>
<path d="M17.6862 84.8419C18.046 84.8419 18.4777 84.9092 18.9944 84.9361L20.6099 85.0034C21.1855 85.0034 21.7807 85.0034 22.3956 85.0034C23.0104 85.0034 23.5991 84.9563 24.1746 84.9024C24.7172 84.8534 25.2566 84.7725 25.7902 84.6602C26.2411 84.5761 26.6803 84.436 27.0983 84.243L27.6674 78.5433C27.1277 78.7698 26.5632 78.928 25.9864 79.0144C25.2714 79.1311 24.5509 79.2097 23.828 79.2499C23.0562 79.2903 22.2713 79.3105 21.4537 79.3105C20.6361 79.3105 19.8643 79.3105 19.1187 79.2701L17.0779 79.2028C16.4588 79.1759 15.9682 79.1624 15.6063 79.1624C13.5751 79.1227 11.5483 79.3695 9.58228 79.8959C8.15571 80.2911 6.82106 80.9776 5.65784 81.9147C4.70906 82.6871 3.97569 83.704 3.5321 84.8621C3.0948 86.0111 2.87287 87.2349 2.87803 88.4689C2.87491 88.9258 2.94337 89.3803 3.08079 89.8148C3.21342 90.2273 3.4124 90.614 3.66946 90.9587C3.9378 91.2854 4.27277 91.5473 4.65057 91.7259C5.05485 91.9386 5.50483 92.0427 5.95871 92.0287C6.37273 92.0297 6.78247 91.9427 7.16221 91.773C7.53281 91.617 7.87045 91.3884 8.1564 91.1C8.44442 90.8079 8.67729 90.4634 8.84317 90.0839C8.99336 89.6833 9.05805 89.2542 9.03286 88.8256C9.02742 88.3223 8.89682 87.8289 8.65349 87.3922C8.41125 86.9222 8.04663 86.5307 7.60044 86.2617C7.81195 85.9714 8.05075 85.7032 8.31338 85.461C8.58451 85.2031 8.88288 84.9774 9.20291 84.788C9.53142 84.5935 9.88637 84.4506 10.256 84.3641C10.6541 84.2804 11.0629 84.2645 11.466 84.317L9.43838 104.74H15.7698L16.6136 95.9518H22.5983L23.0954 91.3894H17.0322L17.6862 84.8419Z" fill="#257261"/>
<path d="M46.4457 85.757C47.307 85.8112 48.1579 85.5409 48.8396 84.9966C49.118 84.744 49.341 84.4334 49.4937 84.0853C49.6464 83.7373 49.7254 83.3598 49.7254 82.9779C49.7254 82.596 49.6464 82.2185 49.4937 81.8704C49.341 81.5223 49.118 81.2117 48.8396 80.9591C48.1366 80.4572 47.3014 80.1883 46.4457 80.1883C45.59 80.1883 44.7548 80.4572 44.0518 80.9591C43.7734 81.2117 43.5504 81.5223 43.3977 81.8704C43.245 82.2185 43.166 82.596 43.166 82.9779C43.166 83.3598 43.245 83.7373 43.3977 84.0853C43.5504 84.4334 43.7734 84.744 44.0518 84.9966C44.7338 85.5403 45.5845 85.8105 46.4457 85.757Z" fill="#257261"/>
<path d="M77.3834 89.3572C76.9803 88.7807 76.4427 88.3179 75.8202 88.0113C75.1059 87.6705 74.3245 87.5047 73.5375 87.5268C72.8462 87.5095 72.16 87.652 71.5294 87.944C71.0258 88.1942 70.5443 88.4892 70.0905 88.8255C70.1428 88.5497 70.1755 88.3209 70.1951 88.1526C70.2148 87.9844 70.2475 87.7623 70.2802 87.4797L64.0665 87.7018V88.045C63.9684 87.9777 63.8833 87.9104 63.7787 87.8498C63.3528 87.6127 62.8764 87.4878 62.3921 87.4864C61.9468 87.4821 61.5042 87.5573 61.0839 87.7085C60.6893 87.8492 60.3101 88.0318 59.9524 88.2536C59.614 88.4629 59.2982 88.7088 59.0105 88.9871C58.755 89.2194 58.5126 89.4666 58.2845 89.7273L58.4938 87.5201L52.4763 87.7421L51.4167 98.556L51.3578 98.482C51.2833 98.7023 51.1752 98.909 51.0374 99.0943C50.7089 99.5302 50.2762 99.871 49.7815 100.084C49.5379 100.183 49.2785 100.236 49.0163 100.238C48.8247 100.247 48.634 100.208 48.4603 100.124C48.3186 100.047 48.199 99.9336 48.1136 99.7942C48.0257 99.648 47.9657 99.4858 47.937 99.3164C47.905 99.1298 47.8897 98.9406 47.8913 98.7511L49.0621 87.4797L42.9596 87.7421L41.9654 97.6072C41.9654 97.9234 41.9654 98.2195 41.9261 98.5022C41.8506 98.7262 41.7426 98.9372 41.6056 99.128C41.4569 99.354 41.2761 99.5559 41.0693 99.7269C40.8557 99.9074 40.6205 100.059 40.3694 100.178C40.1308 100.297 39.8693 100.359 39.6042 100.359C39.3696 100.375 39.1373 100.304 38.9501 100.158C38.7958 100.026 38.6821 99.8502 38.6231 99.6528C38.5578 99.4347 38.5226 99.2082 38.5184 98.9799C38.4983 98.7404 38.4983 98.4995 38.5184 98.2599L39.5322 87.8229L33.5475 87.547L33.4297 89.0813C33.2466 88.9534 33.0307 88.8121 32.7756 88.664C32.5108 88.5136 32.2378 88.3788 31.9581 88.2603C31.6454 88.1249 31.3213 88.0191 30.99 87.944C30.6304 87.8536 30.2614 87.8084 29.8912 87.8094C29.2375 87.7963 28.5882 87.9209 27.983 88.1755C27.3779 88.4301 26.8297 88.8093 26.3723 89.2899C25.9286 89.7514 25.5499 90.2747 25.2473 90.8443C24.9348 91.4314 24.6743 92.0462 24.4689 92.6814C24.267 93.3063 24.1075 93.9449 23.9914 94.5925C23.8737 95.2654 23.7821 95.8307 23.7233 96.3892C23.6644 96.9477 23.6186 97.4389 23.6055 97.8696C23.5925 98.3003 23.6055 98.6233 23.6055 98.8386C23.5993 99.6515 23.6983 100.462 23.8999 101.248C24.0757 101.95 24.3822 102.61 24.8025 103.192C25.2167 103.746 25.7524 104.191 26.3657 104.491C27.075 104.825 27.849 104.989 28.6288 104.969C29.1243 104.978 29.6182 104.91 30.0939 104.767C30.4748 104.652 30.8414 104.491 31.1862 104.289C31.4623 104.127 31.721 103.935 31.9581 103.717C32.1674 103.529 32.3178 103.374 32.4224 103.266C32.5625 103.13 32.6856 102.976 32.7887 102.809C32.8934 102.654 32.998 102.479 33.1027 102.291C33.5823 104.049 34.8905 104.924 37.0271 104.915C37.7183 104.913 38.4033 104.781 39.0482 104.525C39.7214 104.27 40.3574 103.921 40.9385 103.488C41.4179 103.119 41.8566 102.698 42.2466 102.23C42.3971 102.677 42.6181 103.095 42.9007 103.468C43.2776 103.93 43.7579 104.29 44.3004 104.518C44.9493 104.782 45.6435 104.908 46.3411 104.888C47.0691 104.886 47.791 104.752 48.4734 104.491C49.1721 104.244 49.8328 103.895 50.4356 103.455C50.6339 103.304 50.8239 103.143 51.0047 102.97L50.8411 104.639H56.8848L57.9378 93.536C57.9963 93.3125 58.1167 93.1114 58.2845 92.9573C58.4784 92.7488 58.6983 92.5678 58.9385 92.4189C59.2069 92.2565 59.4921 92.1255 59.7888 92.0286C60.0607 91.9338 60.3455 91.8838 60.6326 91.8806C60.9636 91.8816 61.2939 91.9109 61.6202 91.9681C61.9675 92.0279 62.3105 92.1111 62.6471 92.2171C62.9625 92.3173 63.2671 92.4504 63.5563 92.6141L61.7314 111.638L67.8732 112.129L68.6973 103.865C68.959 104.171 69.2922 104.402 69.6653 104.538C70.2695 104.747 70.906 104.838 71.5425 104.807C72.5318 104.836 73.5156 104.646 74.427 104.249C75.1741 103.901 75.8425 103.397 76.3892 102.768C76.9095 102.161 77.3213 101.464 77.6058 100.709C77.8914 99.9573 78.1103 99.1803 78.2599 98.3878C78.4012 97.6325 78.4909 96.868 78.528 96.0998C78.528 95.3663 78.5738 94.754 78.5738 94.2022C78.5825 93.2827 78.4837 92.3654 78.2795 91.4701C78.1114 90.7145 77.8075 89.9979 77.3834 89.3572ZM32.4159 98.9194C32.2916 99.3476 32.0132 99.711 31.6376 99.9355C31.3342 100.122 30.9899 100.226 30.6368 100.238C30.5201 100.234 30.404 100.218 30.2902 100.191C30.1393 100.141 30.0099 100.039 29.9239 99.9018C29.7814 99.6812 29.6815 99.4345 29.6296 99.1751C29.5402 98.7326 29.5007 98.281 29.5118 97.8292C29.5068 97.0212 29.5769 96.2145 29.7211 95.4202C29.8378 94.7712 30.0288 94.1387 30.2902 93.536C30.4893 93.0794 30.7712 92.666 31.1208 92.318C31.3853 92.0385 31.7429 91.8726 32.1216 91.8537C32.2347 91.8431 32.3486 91.8588 32.455 91.8995C32.5614 91.9403 32.6576 92.0051 32.7364 92.0892C32.842 92.2131 32.9341 92.3485 33.0111 92.493L32.4159 98.9194ZM72.419 95.1375C72.419 95.4202 72.3797 95.7768 72.334 96.2008C72.2831 96.6536 72.2066 97.1029 72.105 97.5466C72.002 98.0097 71.853 98.4607 71.6603 98.8924C71.4901 99.2861 71.2481 99.6425 70.9473 99.9422C70.6558 100.219 70.2712 100.369 69.8746 100.359C69.6887 100.368 69.5037 100.326 69.3383 100.238C69.2157 100.176 69.1117 100.081 69.0374 99.9624C69.1813 98.7579 69.3121 97.5533 69.4299 96.369C69.5476 95.1847 69.6915 93.9801 69.8419 92.7689C70.0172 92.5229 70.2399 92.3168 70.496 92.1632C70.693 92.0362 70.918 91.9621 71.1501 91.9479C71.3396 91.9593 71.5228 92.0219 71.6813 92.1294C71.8398 92.2369 71.9679 92.3855 72.0527 92.5603C72.3566 93.2064 72.4875 93.9241 72.4321 94.6396C72.4321 94.6396 72.4321 94.8145 72.419 95.1039V95.1375Z" fill="#257261"/>
<path d="M116.497 99.1818C116.369 99.4976 116.138 99.7572 115.843 99.9153C115.569 100.067 115.264 100.15 114.953 100.158C114.754 100.156 114.562 100.087 114.404 99.9624C114.226 99.8236 114.071 99.6553 113.946 99.4644C113.817 99.2668 113.716 99.0517 113.645 98.8252C113.578 98.6328 113.54 98.4307 113.534 98.2263C113.534 98.1455 113.534 98.0715 113.534 97.9975C113.534 97.9235 113.534 97.8494 113.534 97.7687L114.535 87.7287L108.583 87.4797L107.536 98.1455C107.536 98.2599 107.536 98.3743 107.536 98.4887L107.497 98.4416C107.421 98.6657 107.313 98.8767 107.176 99.0674C107.025 99.2937 106.842 99.4955 106.634 99.6663C106.422 99.8467 106.189 99.9983 105.94 100.117C105.701 100.235 105.44 100.297 105.175 100.299C104.94 100.316 104.708 100.244 104.521 100.097C104.364 99.9675 104.25 99.7912 104.194 99.5923C104.126 99.3745 104.089 99.1479 104.083 98.9194C104.077 98.6789 104.088 98.4382 104.115 98.1993L105.129 87.7623L99.1444 87.4864L98.9678 89.0409C98.7912 88.9063 98.5754 88.7717 98.3138 88.6237C98.0635 88.4475 97.8011 88.2901 97.5289 88.1526C97.2149 88.019 96.8913 87.911 96.5608 87.8296C96.1981 87.745 95.8274 87.7021 95.4555 87.7018C94.7702 87.6891 94.0901 87.8268 93.4605 88.1055C92.8933 88.3628 92.3784 88.7281 91.9431 89.1822C91.5028 89.6436 91.1284 90.167 90.8312 90.7367C90.5235 91.3253 90.2653 91.9399 90.0594 92.5737C89.8576 93.1992 89.6959 93.8376 89.5753 94.4848C89.4642 95.1578 89.3726 95.723 89.3072 96.2815C89.2418 96.8401 89.2091 97.3313 89.196 97.762C89.1829 98.1926 89.196 98.381 89.196 98.5896C89.1313 98.7421 89.0502 98.8866 88.954 99.0203C88.7986 99.233 88.616 99.4232 88.4111 99.5856C88.2022 99.7605 87.9684 99.9013 87.7178 100.003C87.4755 100.108 87.2154 100.163 86.9525 100.164C86.7595 100.172 86.5679 100.128 86.3965 100.036C86.2559 99.9553 86.1368 99.8397 86.0499 99.7C85.9595 99.5477 85.8995 99.3784 85.8733 99.202C85.8418 99.0086 85.8265 98.8127 85.8275 98.6166C85.8311 98.449 85.8509 98.2822 85.8864 98.1186C86.0368 96.7728 86.1938 95.3125 86.3442 93.7648C86.4947 92.2171 86.6516 90.6559 86.8021 89.0544C86.9525 87.4528 87.1095 85.9185 87.2599 84.3439C87.4104 82.7693 87.5608 81.3427 87.7047 79.9901L81.6022 80.515L79.8689 98.5089C79.8297 98.8529 79.8101 99.1989 79.81 99.5452C79.8035 100.285 79.8892 101.022 80.0651 101.739C80.2136 102.354 80.4878 102.93 80.8696 103.428C81.2478 103.899 81.7299 104.271 82.2759 104.511C82.9323 104.791 83.6394 104.921 84.3493 104.895C85.0186 104.894 85.6826 104.774 86.3115 104.538C86.9777 104.297 87.6091 103.964 88.1887 103.549C88.7734 103.134 89.3013 102.641 89.7585 102.082V102.042C89.9143 102.42 90.1119 102.779 90.3472 103.112C90.7604 103.664 91.2935 104.108 91.9038 104.41C92.6155 104.744 93.3915 104.908 94.1735 104.888C94.6668 104.897 95.1585 104.829 95.6321 104.686C96.0135 104.567 96.3818 104.407 96.7309 104.209C97.0153 104.044 97.2827 103.85 97.5289 103.63L97.9933 103.179C98.1314 103.041 98.2542 102.887 98.3595 102.721C98.4642 102.56 98.5688 102.392 98.667 102.203C99.151 103.96 100.466 104.834 102.591 104.828C103.283 104.825 103.967 104.692 104.612 104.437C105.286 104.182 105.922 103.834 106.503 103.401C107.018 103.011 107.486 102.56 107.896 102.055C108.035 102.488 108.238 102.897 108.498 103.266C108.863 103.768 109.344 104.168 109.897 104.431C110.568 104.725 111.294 104.865 112.023 104.841C112.552 104.851 113.081 104.801 113.599 104.693C113.986 104.609 114.36 104.473 114.711 104.289C115.005 104.138 115.27 103.935 115.496 103.69C115.712 103.453 115.915 103.204 116.105 102.943L116.046 103.482C115.967 104.081 115.895 104.653 115.823 105.198C115.77 105.687 115.66 106.168 115.496 106.631C115.372 107.007 115.161 107.346 114.881 107.62C114.576 107.882 114.186 108.014 113.789 107.99C113.698 107.99 113.534 107.99 113.305 107.95C113.05 107.921 112.797 107.878 112.546 107.822C112.276 107.763 112.011 107.679 111.755 107.573C111.516 107.491 111.294 107.363 111.101 107.196L110.27 110.083C110.853 110.704 111.543 111.208 112.304 111.57C113.098 111.898 113.948 112.056 114.803 112.035C116.233 112.077 117.644 111.684 118.858 110.904C120.016 110.08 120.854 108.862 121.226 107.465C121.382 107.058 121.511 106.64 121.612 106.214C121.716 105.797 121.802 105.393 121.867 105.009C121.932 104.626 121.978 104.262 122.017 103.912C122.057 103.563 122.096 103.24 122.135 102.997L123.692 87.6951L117.648 87.4057L116.497 99.1818ZM97.9998 98.805C97.8709 99.2328 97.5909 99.5953 97.2149 99.8211C96.9139 100.007 96.5717 100.112 96.2207 100.124C96.1034 100.121 95.987 100.103 95.8741 100.07C95.7204 100.026 95.5879 99.9253 95.5012 99.7874C95.3629 99.5629 95.2654 99.3144 95.2135 99.054C95.1231 98.6116 95.0836 98.1599 95.0957 97.7081C95.0874 96.8977 95.1576 96.0885 95.305 95.2923C95.4171 94.6465 95.6083 94.0179 95.8741 93.4216C96.0709 92.9636 96.3531 92.5498 96.7047 92.2036C96.9709 91.9345 97.3259 91.7783 97.6989 91.7662C97.813 91.7561 97.9278 91.7719 98.0352 91.8126C98.1426 91.8533 98.2399 91.9179 98.3203 92.0017C98.4259 92.1256 98.518 92.261 98.595 92.4055L97.9998 98.805Z" fill="#257261"/>
<path d="M152.746 93.0986L153.223 88.617C152.908 88.2544 152.531 87.9534 152.111 87.7287C151.685 87.4923 151.209 87.3675 150.725 87.3653C150.28 87.363 149.838 87.4357 149.416 87.5807C149.022 87.7249 148.643 87.9098 148.285 88.1325C147.95 88.3451 147.635 88.5883 147.343 88.8592C147.094 89.0968 146.86 89.3508 146.643 89.6196L146.852 87.4057L140.828 87.6345L139.73 98.9194L138.722 99.5385C138.277 99.8026 137.811 100.028 137.329 100.211C136.779 100.433 136.213 100.608 135.635 100.736C134.953 100.883 134.258 100.953 133.562 100.945C133.214 100.948 132.868 100.898 132.535 100.797C132.226 100.702 131.939 100.544 131.691 100.333C131.445 100.105 131.251 99.8247 131.122 99.5116C130.969 99.1347 130.896 98.7287 130.906 98.3205C130.906 98.2397 130.906 98.159 130.906 98.0782C130.9 97.9931 130.9 97.9077 130.906 97.8225C131.41 97.7687 131.972 97.6745 132.587 97.5466C133.223 97.4185 133.851 97.2568 134.471 97.0621C135.125 96.8603 135.72 96.6247 136.328 96.3892C136.888 96.1442 137.424 95.8469 137.931 95.5009C138.361 95.2033 138.741 94.835 139.056 94.4108C139.331 94.0369 139.48 93.581 139.481 93.1121C139.493 92.3032 139.383 91.4973 139.154 90.7232C138.957 90.0584 138.588 89.4609 138.088 88.9938C137.523 88.4917 136.851 88.1342 136.126 87.9508C135.138 87.6946 134.122 87.5791 133.104 87.6076C132.163 87.5922 131.225 87.7378 130.331 88.0383C129.556 88.3036 128.831 88.7017 128.185 89.2159C127.566 89.7124 127.033 90.3131 126.609 90.9924C126.173 91.6806 125.817 92.4192 125.549 93.1928C125.266 93.9924 125.064 94.82 124.948 95.6625C124.828 96.5206 124.767 97.3863 124.764 98.2532C124.743 99.356 124.966 100.449 125.418 101.45C125.81 102.293 126.396 103.025 127.126 103.583C127.894 104.153 128.766 104.559 129.69 104.774C130.747 105.024 131.829 105.146 132.914 105.137C133.899 105.145 134.881 105.014 135.831 104.747C136.677 104.5 137.494 104.161 138.271 103.738C138.633 103.536 138.98 103.311 139.311 103.065L139.167 104.545H145.211L146.283 93.4485C146.343 93.2257 146.463 93.025 146.63 92.8698C146.825 92.6623 147.045 92.4814 147.284 92.3315C147.552 92.1675 147.837 92.0365 148.134 91.9412C148.406 91.8455 148.691 91.7933 148.978 91.7864C149.309 91.7905 149.639 91.8198 149.966 91.8739C150.313 91.9362 150.655 92.0193 150.993 92.1229C151.322 92.2287 151.639 92.3685 151.941 92.5401C152.233 92.6865 152.504 92.8746 152.746 93.0986ZM131.397 93.8321C131.528 93.3671 131.704 92.9164 131.92 92.4863C132.083 92.1276 132.304 91.8 132.574 91.5173C132.681 91.4039 132.81 91.3135 132.951 91.2512C133.092 91.1888 133.244 91.1558 133.398 91.1539C133.538 91.1369 133.679 91.1697 133.798 91.2469C133.917 91.324 134.007 91.4408 134.052 91.5778C134.165 91.9172 134.248 92.2663 134.301 92.6208C134.21 92.9747 134.059 93.3095 133.856 93.61C133.431 94.2427 132.842 94.7395 132.155 95.0434C131.805 95.1996 131.431 95.2929 131.05 95.3193C131.132 94.8159 131.248 94.319 131.397 93.8321Z" fill="#257261"/>
<path d="M167.233 97.5735C167.167 97.7382 167.072 97.8888 166.952 98.0177C166.825 98.1488 166.687 98.2682 166.54 98.3743C166.389 98.4782 166.229 98.5683 166.063 98.6435C165.926 98.7095 165.78 98.7527 165.631 98.7713C165.631 98.5358 165.631 98.2868 165.631 98.0378V97.5735C165.625 96.6286 165.504 95.6882 165.271 94.7742C165.026 93.7844 164.709 92.8149 164.323 91.8739C163.924 90.9186 163.463 89.9923 162.943 89.1015C162.443 88.2412 161.895 87.412 161.301 86.6184L155.787 87.9642C155.604 88.6775 155.414 89.3774 155.218 90.0637C155.015 90.7367 154.799 91.4096 154.564 92.0825C154.322 92.7699 154.044 93.4438 153.733 94.1013C153.419 94.7742 153.079 95.4875 152.641 96.2075C152.256 96.5771 151.945 97.0206 151.725 97.513C151.458 98.1495 151.331 98.8388 151.352 99.5317C151.366 100.116 151.51 100.689 151.771 101.207C152.078 101.849 152.512 102.418 153.047 102.876C153.697 103.438 154.439 103.877 155.238 104.175C156.241 104.537 157.301 104.71 158.364 104.686C159.436 104.689 160.505 104.551 161.543 104.276C163.489 103.738 165.318 102.824 166.932 101.584C167.69 101.011 168.411 100.388 169.091 99.7201L167.233 97.5735ZM159.764 99.1212C159.703 99.4686 159.581 99.8016 159.404 100.104C159.233 100.401 158.995 100.653 158.711 100.837C158.376 101.031 157.996 101.126 157.612 101.113C157.029 101.13 156.447 101.072 155.879 100.938C155.514 100.854 155.174 100.684 154.884 100.44H154.963C155.278 100.443 155.589 100.379 155.879 100.252C156.162 100.128 156.421 99.9524 156.644 99.7336C156.863 99.5164 157.037 99.2553 157.154 98.9665C157.278 98.6689 157.34 98.3481 157.337 98.0244C157.339 97.7087 157.281 97.3956 157.167 97.1025C157.048 96.8145 156.875 96.5538 156.657 96.3354C156.919 95.8307 157.154 95.3058 157.376 94.7607C157.599 94.2157 157.815 93.6908 158.031 93.1861C159.247 95.4785 159.855 97.098 159.855 98.0446C159.853 98.401 159.823 98.7565 159.764 99.1078V99.1212Z" fill="#257261"/>
<path d="M81.3994 44.6079C80.7348 44.7226 80.0644 44.7989 79.3914 44.8367C78.6981 44.8771 78.031 44.8906 77.3769 44.8771C76.7228 44.8637 76.1734 44.8771 75.7221 44.8098L74.5448 61.2964L69.3122 61.4444L70.5418 45.0117C70.1349 44.9742 69.7256 44.9742 69.3187 45.0117C68.8604 45.0388 68.4053 45.1064 67.9582 45.2136C67.5398 45.312 67.1322 45.4541 66.7417 45.6375C66.4222 45.7818 66.1481 46.0148 65.9502 46.3104C66.3134 46.5234 66.6179 46.8277 66.8353 47.195C67.0527 47.5622 67.1758 47.9803 67.193 48.4099C67.2069 48.7557 67.1466 49.1003 67.0164 49.4193C66.888 49.7397 66.7015 50.032 66.467 50.2807C66.2341 50.5274 65.9592 50.7281 65.6559 50.8728C65.3457 51.0196 65.0096 51.0997 64.6683 51.1084C64.3007 51.1241 63.9348 51.0479 63.6021 50.8863C63.2887 50.7263 63.0139 50.4964 62.7976 50.2134C62.5742 49.9371 62.3993 49.6229 62.2809 49.2847C62.1623 48.929 62.0962 48.557 62.0847 48.1812C62.0521 47.1599 62.2328 46.1434 62.6145 45.2001C63.0241 44.2343 63.6683 43.3931 64.4851 42.7574C65.5003 41.9884 66.6443 41.4181 67.8601 41.0751C69.5051 40.6211 71.1999 40.3859 72.903 40.3753H74.427H76.2977C76.9517 40.3753 77.6058 40.3416 78.3188 40.308C79.0317 40.2743 79.6727 40.2272 80.3137 40.1532C80.9547 40.0792 81.5433 39.985 82.0862 39.8706C82.5566 39.779 83.0153 39.6322 83.4532 39.4332L83.0346 44.1436C82.5156 44.3828 81.9642 44.5394 81.3994 44.6079Z" fill="#257261"/>
<path d="M87.9531 56.633C87.9532 56.3918 87.9729 56.1509 88.012 55.913C88.0578 55.59 88.1036 55.2401 88.1494 54.8162C88.1951 54.3922 88.2409 53.9885 88.2867 53.5443C88.327 53.1285 88.3423 52.7105 88.3325 52.2927C88.3317 51.8964 88.2585 51.5038 88.1167 51.1353C88.0618 50.9905 87.9624 50.8681 87.8338 50.7867C87.7051 50.7053 87.5541 50.6694 87.4037 50.6844C87.2549 50.6895 87.1112 50.7412 86.9916 50.8325C86.865 50.9245 86.7525 51.0357 86.6581 51.1622C86.561 51.2883 86.4756 51.4235 86.403 51.5659C86.331 51.7073 86.2722 51.8284 86.2329 51.9226L85.5788 60.9801L80.5752 61.1214L82.073 41.1962L87.1159 40.6175C87.0701 41.102 87.0244 41.674 86.9655 42.3267C86.9066 42.9795 86.8478 43.6726 86.7889 44.3455C86.73 45.0184 86.6646 45.6913 86.6123 46.3643C86.56 47.0372 86.5011 47.5823 86.4488 48.0668C86.7784 47.7046 87.1769 47.416 87.6196 47.2189C88.1015 47.0059 88.6191 46.8916 89.1435 46.8824C89.7665 46.8343 90.3927 46.9097 90.988 47.1045C91.4715 47.279 91.9022 47.5806 92.2373 47.9793C92.5828 48.3945 92.8332 48.8844 92.9699 49.4126C93.1374 50.0446 93.2275 50.6956 93.238 51.3506C93.2518 51.8108 93.2387 52.2715 93.1988 52.7301C93.153 53.1675 93.1072 53.578 93.0614 53.9548C93.0157 54.3316 92.9633 54.695 92.9175 55.018C92.879 55.3124 92.8615 55.6093 92.8652 55.9063C92.8661 56.047 92.8837 56.1871 92.9175 56.3235C92.9461 56.4594 93.0017 56.5877 93.0811 56.7003C93.1555 56.8117 93.254 56.9039 93.3689 56.9695C93.5033 57.0429 93.6553 57.0756 93.8071 57.0637C94.033 57.0644 94.2564 57.0139 94.4612 56.9157C94.6484 56.8252 94.8206 56.7048 94.9713 56.559C95.1248 56.4217 95.2591 56.2632 95.3703 56.088C95.4754 55.9231 95.5631 55.7471 95.632 55.5631L96.9401 57.0435C96.772 57.5936 96.5179 58.1118 96.1879 58.5778C95.5262 59.5164 94.6189 60.2422 93.5716 60.6706C93.0816 60.8805 92.5585 60.9968 92.028 61.0138C91.3143 61.0698 90.599 60.9305 89.9546 60.61C89.4623 60.3521 89.0415 59.9701 88.7315 59.4997C88.4421 59.0569 88.2379 58.5612 88.1297 58.0394C88.0301 57.577 87.971 57.1063 87.9531 56.633Z" fill="#257261"/>
<path d="M109.956 57.1579C109.52 57.6065 109.049 58.0551 108.543 58.5037C108.029 58.9604 107.473 59.3639 106.882 59.7083C106.254 60.0619 105.592 60.3483 104.907 60.5629C104.125 60.8027 103.315 60.934 102.5 60.9532C101.602 60.9836 100.705 60.9069 99.8246 60.7244C99.051 60.5659 98.3168 60.2477 97.6661 59.789C97.0575 59.3447 96.5617 58.7561 96.2206 58.0731C95.835 57.2529 95.6359 56.3531 95.6385 55.4419C95.62 54.7228 95.6506 54.0033 95.7301 53.2886C95.8087 52.5882 95.9577 51.8982 96.1749 51.2295C96.382 50.5819 96.6607 49.961 97.0055 49.3789C97.3451 48.8082 97.7738 48.2989 98.2744 47.8716C98.7997 47.4332 99.392 47.0875 100.027 46.8488C100.763 46.5795 101.536 46.4385 102.317 46.4315C103.157 46.3845 104 46.457 104.822 46.6469C105.429 46.782 105.996 47.0633 106.476 47.4678C106.899 47.8448 107.217 48.33 107.399 48.8742C107.599 49.5114 107.705 50.1762 107.713 50.8459C107.724 51.2333 107.611 51.6138 107.392 51.9293C107.142 52.289 106.834 52.6029 106.483 52.8579C106.073 53.1606 105.635 53.4199 105.175 53.6318C104.677 53.8648 104.169 54.0714 103.651 54.2509C103.142 54.4282 102.625 54.5787 102.101 54.7017C101.643 54.8134 101.18 54.901 100.714 54.9642V55.1795V55.3747C100.713 55.7154 100.782 56.0525 100.917 56.3639C101.028 56.6159 101.193 56.8391 101.399 57.0173C101.605 57.1954 101.847 57.3239 102.107 57.3934C102.387 57.4683 102.675 57.5023 102.964 57.4944C103.539 57.4812 104.111 57.4068 104.671 57.2723C105.147 57.1518 105.612 56.9943 106.064 56.8013C106.461 56.6307 106.844 56.4282 107.209 56.1956L108.157 55.5765L109.956 57.1579ZM100.721 52.8983C101.035 52.8672 101.342 52.7831 101.63 52.6493C101.912 52.5155 102.174 52.341 102.408 52.1312C102.643 51.9261 102.846 51.6856 103.01 51.4179C103.171 51.1645 103.288 50.8845 103.357 50.5902C103.305 50.2967 103.229 50.0084 103.128 49.7289C103.085 49.6194 103.009 49.5272 102.911 49.4664C102.813 49.4057 102.699 49.3797 102.585 49.3924C102.334 49.4088 102.1 49.5246 101.931 49.7154C101.708 49.9562 101.527 50.2337 101.394 50.5364C101.225 50.8971 101.09 51.2734 100.989 51.6601C100.878 52.0665 100.795 52.4802 100.74 52.8983H100.721Z" fill="#257261"/>
</svg>
